<?xml version="1.0" encoding="utf-8"?>
<!-- Generator: Adobe Illustrator 17.1.0, SVG Export Plug-In . SVG Version: 6.00 Build 0)  -->
<!DOCTYPE svg PUBLIC "-//W3C//DTD SVG 1.1//EN" "http://www.w3.org/Graphics/SVG/1.1/DTD/svg11.dtd">
<svg version="1.1" id="Capa_3" xmlns="http://www.w3.org/2000/svg" xmlns:xlink="http://www.w3.org/1999/xlink" x="0px" y="0px"
	 viewBox="0 0 797 792" enable-background="new 0 0 797 792" xml:space="preserve">
<g>
	<rect x="327.1" y="733.1" fill="#3C3C3B" width="114.7" height="3.7"/>
</g>
<g>
	<path fill="#3C3C3B" d="M213.3,654.8h-3.7l-5.7-8.1c-1,0.2-2.1,0.3-3.1,0.3h-3.5v7.8h-3.1v-29.6h6.7c8.1,0,12.3,4.5,12.3,10.9
		c0,4.4-2.1,7.9-6.2,9.6L213.3,654.8z M200.6,644.3c6.7,0,9.2-3.4,9.2-8.1c0-4.6-2.5-8.1-9.2-8.1h-3.3v16.2H200.6z"/>
	<path fill="#3C3C3B" d="M220.6,640c0-8.9,6.8-15.1,15.2-15.1c8.4,0,15.2,6.2,15.2,15.1c0,8.9-6.8,15.2-15.2,15.2
		C227.3,655.2,220.6,648.9,220.6,640z M247.7,640c0-7-5.1-12.3-12-12.3c-6.9,0-11.9,5.3-11.9,12.3c0,7,5,12.3,11.9,12.3
		C242.7,652.4,247.7,647.1,247.7,640z"/>
	<path fill="#3C3C3B" d="M257.8,640c0-8.9,6.8-15.1,15.2-15.1c8.4,0,15.2,6.2,15.2,15.1c0,8.9-6.8,15.2-15.2,15.2
		C264.6,655.2,257.8,648.9,257.8,640z M285,640c0-7-5.1-12.3-12-12.3c-6.9,0-11.9,5.3-11.9,12.3c0,7,5,12.3,11.9,12.3
		C279.9,652.4,285,647.1,285,640z"/>
	<path fill="#3C3C3B" d="M301.6,628h-9.1v-2.8h21.3v2.8h-9.1v26.8h-3.1V628z"/>
	<path fill="#3C3C3B" d="M318.7,649.2l2.6-1.4c1.4,2.5,3.4,4.6,7.6,4.6c3.4,0,6.1-1.9,6.1-5.1c0-3-1.9-4.5-5.6-6.2l-2.3-1.1
		c-4.2-1.9-6.5-4-6.5-8.1c0-4.3,3.3-7.1,7.8-7.1c4,0,6.4,1.8,8,4.4l-2.5,1.6c-1.1-1.8-2.7-3.2-5.5-3.2c-2.9,0-4.7,1.7-4.7,4.2
		c0,2.6,1.4,3.8,4.7,5.3l2.3,1.1c4.9,2.2,7.4,4.6,7.4,9c0,4.9-3.9,7.8-9.2,7.8C323.3,655.2,320.2,652.3,318.7,649.2z"/>
	<path fill="#3C3C3B" d="M375.4,646c0.8-2,1.3-4.4,1.3-7.2h3c0,3.8-0.8,7-2.2,9.7l5.2,6.3h-3.8l-3.2-3.8c-2.4,2.7-5.7,4.2-9.3,4.2
		c-5.7,0-9.4-3.2-9.4-8.1c0-4.9,3.3-7.2,7.6-9.6l-0.5-0.6c-1.6-2-2.4-4-2.4-5.9c0-3.4,2.5-6.1,6.4-6.1c3.8,0,6.3,2.6,6.3,6
		c0,3-2.1,5.2-5.4,7.1L375.4,646z M366.2,639.5c-3.5,1.9-5.9,3.8-5.9,7.5c0,3.4,2.3,5.4,6.1,5.4c3,0,5.6-1.3,7.4-3.7L366.2,639.5z
		 M371.5,630.9c0-2.1-1.4-3.4-3.4-3.4c-2,0-3.4,1.3-3.4,3.4c0,1.6,0.7,2.9,1.7,4.2l0.8,1C369.8,634.6,371.5,633.1,371.5,630.9z"/>
	<path fill="#3C3C3B" d="M399.5,649.2l2.6-1.4c1.4,2.5,3.4,4.6,7.6,4.6c3.4,0,6.1-1.9,6.1-5.1c0-3-1.9-4.5-5.6-6.2l-2.4-1.1
		c-4.2-1.9-6.5-4-6.5-8.1c0-4.3,3.3-7.1,7.8-7.1c4,0,6.4,1.8,8,4.4l-2.5,1.6c-1.1-1.8-2.7-3.2-5.5-3.2c-2.9,0-4.7,1.7-4.7,4.2
		c0,2.6,1.4,3.8,4.7,5.3l2.3,1.1c4.9,2.2,7.4,4.6,7.4,9c0,4.9-3.9,7.8-9.2,7.8C404.2,655.2,401.1,652.3,399.5,649.2z"/>
	<path fill="#3C3C3B" d="M433.4,628h-9.1v-2.8h21.3v2.8h-9.1v26.8h-3.1V628z"/>
	<path fill="#3C3C3B" d="M449.9,640c0-8.9,6.8-15.1,15.2-15.1c8.4,0,15.2,6.2,15.2,15.1c0,8.9-6.8,15.2-15.2,15.2
		C456.7,655.2,449.9,648.9,449.9,640z M477,640c0-7-5-12.3-12-12.3c-6.9,0-11.9,5.3-11.9,12.3c0,7,5,12.3,11.9,12.3
		C472,652.4,477,647.1,477,640z"/>
	<path fill="#3C3C3B" d="M508,654.8h-3.7l-5.7-8.1c-1,0.2-2.1,0.3-3.1,0.3H492v7.8h-3.1v-29.6h6.7c8.1,0,12.3,4.5,12.3,10.9
		c0,4.4-2.1,7.9-6.2,9.6L508,654.8z M495.3,644.3c6.7,0,9.2-3.4,9.2-8.1c0-4.6-2.5-8.1-9.2-8.1H492v16.2H495.3z"/>
	<path fill="#3C3C3B" d="M517.1,625.2h3.2v29.6h-3.2V625.2z"/>
	<path fill="#3C3C3B" d="M530.7,625.2h18v2.8h-14.9v13.9h13.3v2.7h-13.3v7.4h15.5v2.8h-18.6V625.2z"/>
	<path fill="#3C3C3B" d="M555.3,649.2l2.6-1.4c1.4,2.5,3.4,4.6,7.6,4.6c3.4,0,6.1-1.9,6.1-5.1c0-3-1.9-4.5-5.6-6.2l-2.3-1.1
		c-4.2-1.9-6.5-4-6.5-8.1c0-4.3,3.4-7.1,7.8-7.1c4,0,6.4,1.8,8,4.4l-2.5,1.6c-1.1-1.8-2.7-3.2-5.5-3.2c-2.9,0-4.7,1.7-4.7,4.2
		c0,2.6,1.4,3.8,4.7,5.3l2.4,1.1c4.9,2.2,7.4,4.6,7.4,9c0,4.9-3.9,7.8-9.2,7.8C559.9,655.2,556.9,652.3,555.3,649.2z"/>
</g>
<g>
	<g>
		<path fill="#3C3C3B" d="M101.3,507.8H76.8v-4.1h53.7v4.1H106v73.1h-4.7V507.8z"/>
	</g>
	<g>
		<path fill="#3C3C3B" d="M216.7,507.8h-24.5v-4.1h53.7v4.1h-24.5v73.1h-4.7V507.8z"/>
	</g>
	<g>
		<path fill="#3C3C3B" d="M305.6,580.9h-4.7l31.2-78.1h1.4l31.3,78.1h-4.8l-25-63.1c-1.1-2.7-2.3-7-2.3-7s-1.1,4.3-2.3,7
			L305.6,580.9z"/>
	</g>
	<g>
		<path fill="#3C3C3B" d="M443.2,517.8c-1.5-1.9-3.5-5.1-3.5-5.1s0.3,3.5,0.3,5.8v62.4h-4.3v-78.1h1.4l49.4,64
			c1.5,1.9,3.5,5.1,3.5,5.1s-0.3-3.5-0.3-5.8v-62.4h4.3v78.1h-1.4L443.2,517.8z"/>
	</g>
	<g>
		<path fill="#3C3C3B" d="M588.2,507.8h-24.5v-4.1h53.7v4.1h-24.5v73.1h-4.7V507.8z"/>
	</g>
	<g>
		<path fill="#3C3C3B" d="M687.5,503.8h4.7v77.2h-4.7V503.8z"/>
	</g>
</g>
<path fill="#3C3C3B" d="M476,55.2c-0.9,4.4-6.7,12-36.5,12c-42.3,0-49.1,11.3-54.1,16.2c-5,4.8-9.1,7.8-9.1,7.8l-51.5,13.5l1,2.8
	c0,0,70.1,5,70.1,13.6c0,14.2,0,14.2-21.4,36.3c-13.7,14.1-65.3,95.5-49.7,183.1c0,0,9.2-3.5,22.7-12.1c0.9-0.5,1.8-1,2.8-1.5
	l-2.8,13.6c9.4,34.6,35.1,57.2,35.1,57.2c18.4-39.9,32.2-77,42.6-110.8c16.7-8.9,29.1-15.6,30.3-16.3c3.8-2.2,11.2-3,11.2,9.2
	c0,0,4.6-8.6,4.6-17.1c0-6-6.6-7.2-13.7-6.8c14.6-41.9,1.4-100.8-3-117.5c0.7-8.7,1.1-17.9,1.2-27.3c0.2-15.5-0.6-23.9-0.6-23.9
	c11-1.5,16.7-6.4,19.5-11.9c0.1-0.2,0.2-0.4,0.3-0.7c0.1-0.3,0.3-0.6,0.4-0.9c0-0.1,0.1-0.2,0.1-0.4C478.9,64.6,476,55.2,476,55.2z
	 M409.7,100.3c-3.3,0-6-2.7-6-6c0-3.3,2.7-6,6-6c3.3,0,6,2.7,6,6C415.6,97.7,413,100.3,409.7,100.3z"/>
</svg>
