<?xml version="1.0" encoding="utf-8"?>
<!-- Generator: Adobe Illustrator 17.1.0, SVG Export Plug-In . SVG Version: 6.00 Build 0)  -->
<!DOCTYPE svg PUBLIC "-//W3C//DTD SVG 1.1//EN" "http://www.w3.org/Graphics/SVG/1.1/DTD/svg11.dtd">
<svg version="1.1" id="Capa_3" xmlns="http://www.w3.org/2000/svg" xmlns:xlink="http://www.w3.org/1999/xlink" x="0px" y="0px"
	 viewBox="0 0 797 332" enable-background="new 0 0 797 332" xml:space="preserve">
<g>
	<rect x="327.1" y="296.1" fill="#3C3C3B" width="114.7" height="3.7"/>
</g>
<g>
	<path fill="#3C3C3B" d="M213.3,217.8h-3.7l-5.7-8.1c-1,0.2-2.1,0.3-3.1,0.3h-3.5v7.8h-3.1v-29.6h6.7c8.1,0,12.3,4.5,12.3,10.9
		c0,4.4-2.1,7.9-6.2,9.6L213.3,217.8z M200.6,207.3c6.7,0,9.2-3.4,9.2-8.1c0-4.6-2.5-8.1-9.2-8.1h-3.3v16.2H200.6z"/>
	<path fill="#3C3C3B" d="M220.6,203c0-8.9,6.8-15.1,15.2-15.1c8.4,0,15.2,6.2,15.2,15.1c0,8.9-6.8,15.2-15.2,15.2
		C227.3,218.2,220.6,211.9,220.6,203z M247.7,203c0-7-5.1-12.3-12-12.3c-6.9,0-11.9,5.3-11.9,12.3c0,7,5,12.3,11.9,12.3
		C242.7,215.4,247.7,210.1,247.7,203z"/>
	<path fill="#3C3C3B" d="M257.8,203c0-8.9,6.8-15.1,15.2-15.1c8.4,0,15.2,6.2,15.2,15.1c0,8.9-6.8,15.2-15.2,15.2
		C264.6,218.2,257.8,211.9,257.8,203z M285,203c0-7-5.1-12.3-12-12.3c-6.9,0-11.9,5.3-11.9,12.3c0,7,5,12.3,11.9,12.3
		C279.9,215.4,285,210.1,285,203z"/>
	<path fill="#3C3C3B" d="M301.6,191h-9.1v-2.8h21.3v2.8h-9.1v26.8h-3.1V191z"/>
	<path fill="#3C3C3B" d="M318.7,212.2l2.6-1.4c1.4,2.5,3.4,4.6,7.6,4.6c3.4,0,6.1-1.9,6.1-5.1c0-3-1.9-4.5-5.6-6.2l-2.3-1.1
		c-4.2-1.9-6.5-4-6.5-8.1c0-4.3,3.3-7.1,7.8-7.1c4,0,6.4,1.8,8,4.4l-2.5,1.6c-1.1-1.8-2.7-3.2-5.5-3.2c-2.9,0-4.7,1.7-4.7,4.2
		c0,2.6,1.4,3.8,4.7,5.3l2.3,1.1c4.9,2.2,7.4,4.6,7.4,9c0,4.9-3.9,7.8-9.2,7.8C323.3,218.2,320.2,215.3,318.7,212.2z"/>
	<path fill="#3C3C3B" d="M375.4,209c0.8-2,1.3-4.4,1.3-7.2h3c0,3.8-0.8,7-2.2,9.7l5.2,6.3h-3.8l-3.2-3.8c-2.4,2.7-5.7,4.2-9.3,4.2
		c-5.7,0-9.4-3.2-9.4-8.1c0-4.9,3.3-7.2,7.6-9.6l-0.5-0.6c-1.6-2-2.4-4-2.4-5.9c0-3.4,2.5-6.1,6.4-6.1c3.8,0,6.3,2.6,6.3,6
		c0,3-2.1,5.2-5.4,7.1L375.4,209z M366.2,202.5c-3.5,1.9-5.9,3.8-5.9,7.5c0,3.4,2.3,5.4,6.1,5.4c3,0,5.6-1.3,7.4-3.7L366.2,202.5z
		 M371.5,193.9c0-2.1-1.4-3.4-3.4-3.4c-2,0-3.4,1.3-3.4,3.4c0,1.6,0.7,2.9,1.7,4.2l0.8,1C369.8,197.6,371.5,196.1,371.5,193.9z"/>
	<path fill="#3C3C3B" d="M399.5,212.2l2.6-1.4c1.4,2.5,3.4,4.6,7.6,4.6c3.4,0,6.1-1.9,6.1-5.1c0-3-1.9-4.5-5.6-6.2l-2.4-1.1
		c-4.2-1.9-6.5-4-6.5-8.1c0-4.3,3.3-7.1,7.8-7.1c4,0,6.4,1.8,8,4.4l-2.5,1.6c-1.1-1.8-2.7-3.2-5.5-3.2c-2.9,0-4.7,1.7-4.7,4.2
		c0,2.6,1.4,3.8,4.7,5.3l2.3,1.1c4.9,2.2,7.4,4.6,7.4,9c0,4.9-3.9,7.8-9.2,7.8C404.2,218.2,401.1,215.3,399.5,212.2z"/>
	<path fill="#3C3C3B" d="M433.4,191h-9.1v-2.8h21.3v2.8h-9.1v26.8h-3.1V191z"/>
	<path fill="#3C3C3B" d="M449.9,203c0-8.9,6.8-15.1,15.2-15.1c8.4,0,15.2,6.2,15.2,15.1c0,8.9-6.8,15.2-15.2,15.2
		C456.7,218.2,449.9,211.9,449.9,203z M477,203c0-7-5-12.3-12-12.3c-6.9,0-11.9,5.3-11.9,12.3c0,7,5,12.3,11.9,12.3
		C472,215.4,477,210.1,477,203z"/>
	<path fill="#3C3C3B" d="M508,217.8h-3.7l-5.7-8.1c-1,0.2-2.1,0.3-3.1,0.3H492v7.8h-3.1v-29.6h6.7c8.1,0,12.3,4.5,12.3,10.9
		c0,4.4-2.1,7.9-6.2,9.6L508,217.8z M495.3,207.3c6.7,0,9.2-3.4,9.2-8.1c0-4.6-2.5-8.1-9.2-8.1H492v16.2H495.3z"/>
	<path fill="#3C3C3B" d="M517.1,188.2h3.2v29.6h-3.2V188.2z"/>
	<path fill="#3C3C3B" d="M530.7,188.2h18v2.8h-14.9v13.9h13.3v2.7h-13.3v7.4h15.5v2.8h-18.6V188.2z"/>
	<path fill="#3C3C3B" d="M555.3,212.2l2.6-1.4c1.4,2.5,3.4,4.6,7.6,4.6c3.4,0,6.1-1.9,6.1-5.1c0-3-1.9-4.5-5.6-6.2l-2.3-1.1
		c-4.2-1.9-6.5-4-6.5-8.1c0-4.3,3.4-7.1,7.8-7.1c4,0,6.4,1.8,8,4.4l-2.5,1.6c-1.1-1.8-2.7-3.2-5.5-3.2c-2.9,0-4.7,1.7-4.7,4.2
		c0,2.6,1.4,3.8,4.7,5.3l2.4,1.1c4.9,2.2,7.4,4.6,7.4,9c0,4.9-3.9,7.8-9.2,7.8C559.9,218.2,556.9,215.3,555.3,212.2z"/>
</g>
<g>
	<g>
		<path fill="#3C3C3B" d="M101.3,70.8H76.8v-4.1h53.7v4.1H106v73.1h-4.7V70.8z"/>
	</g>
	<g>
		<path fill="#3C3C3B" d="M216.7,70.8h-24.5v-4.1h53.7v4.1h-24.5v73.1h-4.7V70.8z"/>
	</g>
	<g>
		<path fill="#3C3C3B" d="M305.6,143.9h-4.7l31.2-78.1h1.4l31.3,78.1h-4.8l-25-63.1c-1.1-2.7-2.3-7-2.3-7s-1.1,4.3-2.3,7
			L305.6,143.9z"/>
	</g>
	<g>
		<path fill="#3C3C3B" d="M443.2,80.8c-1.5-1.9-3.5-5.1-3.5-5.1s0.3,3.5,0.3,5.8v62.4h-4.3V65.8h1.4l49.4,64
			c1.5,1.9,3.5,5.1,3.5,5.1s-0.3-3.5-0.3-5.8V66.8h4.3v78.1h-1.4L443.2,80.8z"/>
	</g>
	<g>
		<path fill="#3C3C3B" d="M588.2,70.8h-24.5v-4.1h53.7v4.1h-24.5v73.1h-4.7V70.8z"/>
	</g>
	<g>
		<path fill="#3C3C3B" d="M687.5,66.8h4.7v77.2h-4.7V66.8z"/>
	</g>
</g>
</svg>
